<?xml version="1.0" encoding="UTF-8" standalone="no"?>
<!-- Created with Inkscape (http://www.inkscape.org/) -->

<svg
   xmlns:dc="http://purl.org/dc/elements/1.1/"
   xmlns:cc="http://creativecommons.org/ns#"
   xmlns:rdf="http://www.w3.org/1999/02/22-rdf-syntax-ns#"
   xmlns:svg="http://www.w3.org/2000/svg"
   xmlns="http://www.w3.org/2000/svg"
   xmlns:sodipodi="http://sodipodi.sourceforge.net/DTD/sodipodi-0.dtd"
   xmlns:inkscape="http://www.inkscape.org/namespaces/inkscape"
   width="121.73856mm"
   height="13.895946mm"
   viewBox="0 0 121.73856 13.895946"
   version="1.1"
   id="svg8"
   sodipodi:docname="logo.svg"
   inkscape:version="0.92.0 r">
  <defs
     id="defs2" />
  <sodipodi:namedview
     id="base"
     pagecolor="#ffffff"
     bordercolor="#666666"
     borderopacity="1.0"
     inkscape:pageopacity="0.0"
     inkscape:pageshadow="2"
     inkscape:zoom="1.979899"
     inkscape:cx="214.81779"
     inkscape:cy="13.070459"
     inkscape:document-units="mm"
     inkscape:current-layer="layer1"
     showgrid="false"
     inkscape:window-width="1440"
     inkscape:window-height="808"
     inkscape:window-x="0"
     inkscape:window-y="22"
     inkscape:window-maximized="0" />
  <metadata
     id="metadata5">
    <rdf:RDF>
      <cc:Work
         rdf:about="">
        <dc:format>image/svg+xml</dc:format>
        <dc:type
           rdf:resource="http://purl.org/dc/dcmitype/StillImage" />
        <dc:title></dc:title>
      </cc:Work>
    </rdf:RDF>
  </metadata>
  <g
     inkscape:label="Layer 1"
     inkscape:groupmode="layer"
     id="layer1"
     transform="translate(-20.053131,-44.929956)">
    <g
       aria-label="INDIGO beetle"
       transform="matrix(0.40647267,0,0,0.40647267,-43.396639,-27.820818)"
       style="font-style:normal;font-variant:normal;font-weight:normal;font-stretch:normal;font-size:53.33333206px;line-height:200px;font-family:'Arista 2.0';-inkscape-font-specification:'Arista 2.0, ';letter-spacing:0px;word-spacing:0px;fill:#000000;fill-opacity:1;stroke:none;stroke-width:0.65092528px;stroke-linecap:butt;stroke-linejoin:miter;stroke-opacity:1"
       id="flowRoot4485">
      <path
         d="m 159.72516,179.08739 q 1.44,0 2.45333,1.06667 1.06667,1.06667 1.06667,2.50667 v 26.88 q 0,1.49333 -1.06667,2.56 -1.01333,1.01333 -2.45333,1.01333 -1.54667,0 -2.61334,-1.01333 -1.01333,-1.06667 -1.01333,-2.56 v -26.88 q 0,-1.44 1.01333,-2.50667 1.06667,-1.06667 2.61334,-1.06667 z"
         style="fill:#d177ff;fill-opacity:1;stroke-width:0.65092528px"
         id="path4659" />
      <path
         d="m 179.73182,179.19406 q 2.56,0 4.90667,0.96 2.34667,0.90667 4.10667,2.61333 1.76,1.65334 2.82666,3.94667 1.06667,2.29333 1.06667,4.96 v 17.97333 q 0,1.38667 -1.01333,2.4 -0.96,1.01334 -2.4,1.06667 -1.44,0 -2.50667,-0.90667 -1.01333,-0.96 -1.01333,-2.4 v -17.70666 q 0,-1.22667 -0.48,-2.29334 -0.42667,-1.12 -1.28,-1.92 -0.8,-0.8 -1.92,-1.28 -1.06667,-0.48 -2.34667,-0.48 -1.17333,0 -2.24,0.48 -1.06667,0.42667 -1.86667,1.17334 -0.8,0.74666 -1.28,1.81333 -0.48,1.06667 -0.48,2.24 v 17.81333 q 0,1.38667 -1.06666,2.45334 -1.06667,1.01333 -2.45334,1.01333 -1.38666,0 -2.45333,-0.96 -1.06667,-0.96 -1.06667,-2.34667 v -17.70666 q 0.0533,-2.66667 1.01334,-5.01334 1.01333,-2.34666 2.72,-4.10666 1.76,-1.76 4.10666,-2.77334 2.34667,-1.01333 5.12,-1.01333 z"
         style="fill:#d177ff;fill-opacity:1;stroke-width:0.65092528px"
         id="path4661" />
      <path
         d="m 209.53849,179.03406 q 2.34667,0 4.53333,0.96 2.24,0.90667 3.89334,2.56 1.70666,1.65333 2.72,3.84 1.01333,2.18667 1.01333,4.74667 v 9.86666 q 0,2.4 -1.01333,4.58667 -0.96,2.18667 -2.61334,3.89333 -1.65333,1.65334 -3.89333,2.66667 -2.18667,0.96 -4.64,0.96 h -9.76 q -1.44,0 -2.56,-1.01333 -1.06667,-1.06667 -1.06667,-2.61334 v -26.82666 q 0,-1.38667 1.01334,-2.50667 1.06666,-1.12 2.61333,-1.12 z m -6.18667,7.25333 v 19.57334 h 6.18667 q 1.01333,0 1.92,-0.37334 0.90667,-0.37333 1.54667,-1.01333 0.69333,-0.69333 1.06666,-1.54667 0.37334,-0.90666 0.37334,-1.92 v -9.86666 q 0,-1.01334 -0.37334,-1.86667 -0.37333,-0.90667 -1.06666,-1.54667 -0.64,-0.69333 -1.54667,-1.06666 -0.90667,-0.37334 -1.92,-0.37334 z"
         style="fill:#d177ff;fill-opacity:1;stroke-width:0.65092528px"
         id="path4663" />
      <path
         d="m 228.68348,179.08739 q 1.44,0 2.45334,1.06667 1.06666,1.06667 1.06666,2.50667 v 26.88 q 0,1.49333 -1.06666,2.56 -1.01334,1.01333 -2.45334,1.01333 -1.54666,0 -2.61333,-1.01333 -1.01333,-1.06667 -1.01333,-2.56 v -26.88 q 0,-1.44 1.01333,-2.50667 1.06667,-1.06667 2.61333,-1.06667 z"
         style="fill:#d177ff;fill-opacity:1;stroke-width:0.65092528px"
         id="path4665" />
      <path
         d="m 248.42349,213.11406 q -2.61334,-0.0533 -4.90667,-0.96 -2.34667,-0.96 -4.10667,-2.61333 -1.76,-1.70667 -2.82666,-4 -1.06667,-2.29334 -1.06667,-4.96 v -8.69334 q 0,-2.66666 0.96,-5.01333 1.01333,-2.34667 2.72,-4.10667 1.76,-1.76 4.10667,-2.77333 2.34666,-1.01333 5.22666,-1.01333 1.54667,0 2.77334,0.26666 2.18666,0.37334 4.05333,1.44 2.82667,1.6 4.48,4.48 0.21333,0.37334 0.37333,0.90667 0.21334,0.53333 0.21334,1.01333 0,1.49334 -1.06667,2.56 -1.06667,1.06667 -2.56,1.06667 -1.17333,0 -1.92,-0.58667 -0.74667,-0.64 -1.33333,-1.54666 -0.64,-1.06667 -1.76,-1.70667 -0.90667,-0.53333 -2.34667,-0.90667 -0.42667,-0.0533 -0.96,-0.0533 -1.28,0 -2.34667,0.48 -1.06666,0.42667 -1.86666,1.17333 -0.8,0.74667 -1.28,1.81334 -0.48,1.06666 -0.48,2.24 v 8.53333 q -0.0533,1.49333 0.37333,2.45333 0.48,0.96 1.28,1.76 0.85333,0.8 1.92,1.28 1.12,0.48 2.50667,0.53334 1.38666,0 2.29333,-0.42667 0.96,-0.42667 1.70667,-1.17333 0.8,-0.8 1.28,-1.86667 0.48,-1.06667 0.48,-2.18667 h -1.22667 q -1.44,0 -2.50667,-1.01333 -1.01333,-1.06667 -1.01333,-2.56 0,-1.54667 1.01333,-2.56 1.06667,-1.06667 2.50667,-1.06667 h 4.69333 q 1.54667,0 2.56,1.06667 1.01334,1.01333 1.12,2.56 v 3.25333 q -0.16,2.66667 -1.17333,5.01334 -0.96,2.34666 -2.72,4.10666 -1.70667,1.76 -4.05333,2.77334 -2.34667,1.01333 -5.12,1.01333 z"
         style="fill:#d177ff;fill-opacity:1;stroke-width:0.65092528px"
         id="path4667" />
      <path
         d="m 277.17599,213.11406 q -2.66667,0 -5.01333,-0.90667 -2.34667,-0.96 -4.10667,-2.61333 -1.76,-1.70667 -2.82667,-4 -1.06666,-2.29333 -1.06666,-4.96 v -8.69333 q 0,-2.66667 0.96,-5.01334 1.01333,-2.34666 2.72,-4.10666 1.76,-1.76 4.10666,-2.77334 2.34667,-1.01333 5.22667,-1.01333 2.56,0 4.90667,0.96 2.34666,0.90667 4.10666,2.61333 1.76,1.65334 2.82667,3.94667 1.06667,2.29333 1.06667,4.96 v 8.69333 q 0,2.66667 -1.01334,5.01334 -0.96,2.34666 -2.72,4.10666 -1.70666,1.76 -4.05333,2.77334 -2.34667,1.01333 -5.12,1.01333 z m 5.97333,-21.17333 q 0,-1.22667 -0.48,-2.29334 -0.42666,-1.12 -1.28,-1.92 -0.8,-0.8 -1.92,-1.28 -1.06666,-0.48 -2.34666,-0.48 -1.28,0 -2.34667,0.48 -1.06667,0.42667 -1.86667,1.17334 -0.8,0.74666 -1.28,1.81333 -0.48,1.06667 -0.48,2.24 v 8.53333 q -0.0533,1.22667 0.37334,2.34667 0.48,1.06667 1.28,1.86667 0.85333,0.8 1.92,1.28 1.12,0.48 2.50666,0.48 1.17334,0 2.24,-0.42667 1.06667,-0.48 1.86667,-1.22667 0.8,-0.74666 1.28,-1.81333 0.48,-1.06667 0.48,-2.24 z"
         style="fill:#d177ff;fill-opacity:1;stroke-width:0.65092528px"
         id="path4669" />
      <path
         d="m 308.57181,179.08739 q 0.69334,-0.0533 1.33334,0.26667 0.64,0.26667 1.12,0.74667 0.53333,0.48 0.8,1.17333 0.26666,0.64 0.26666,1.33333 v 6.13334 q 1.86667,-0.96 3.84,-1.22667 2.02667,-0.32 4,0 1.97334,0.26667 3.84,1.17333 1.86667,0.85334 3.46667,2.34667 1.86667,1.92 2.77333,4.16 0.96,2.18667 0.96,5.01333 0,2.66667 -1.06666,5.01334 -1.01334,2.34666 -2.77334,4.10666 -1.76,1.76 -4.10666,2.77334 -2.34667,1.01333 -4.96,1.01333 -2.56,0 -4.90667,-1.01333 -2.34667,-1.06667 -4.16,-2.82667 -1.76,-1.76 -2.82667,-4.10667 -1.06666,-2.34666 -1.06666,-4.96 v -17.86666 q 0,-0.64 0.32,-1.22667 0.32,-0.64 0.8,-1.06667 0.48,-0.48 1.06666,-0.74666 0.64,-0.26667 1.28,-0.21334 z m 3.52,21.12 q 0,1.22667 0.48,2.34667 0.48,1.06667 1.28,1.86667 0.85334,0.8 1.92,1.28 1.06667,0.48 2.29334,0.48 1.17333,0 2.24,-0.48 1.12,-0.48 1.92,-1.28 0.85333,-0.8 1.33333,-1.86667 0.48,-1.12 0.48,-2.34667 0,-1.22666 -0.48,-2.29333 -0.48,-1.12 -1.33333,-1.92 -0.8,-0.8 -1.92,-1.28 -1.06667,-0.48 -2.24,-0.48 -1.22667,0 -2.29334,0.53333 -1.06666,0.48 -1.92,1.33334 -0.8,0.8 -1.28,1.92 -0.48,1.06666 -0.48,2.18666 z"
         style="fill:#cecece;fill-opacity:1;stroke-width:0.65092528px"
         id="path4671" />
      <path
         d="m 345.76348,187.30073 q 2.56,0 4.90667,1.06666 2.34666,1.06667 4.10666,2.88 1.81334,1.76 2.88,4.10667 1.06667,2.29333 1.06667,4.85333 0,1.38667 -1.06667,2.18667 -1.01333,0.8 -2.56,0.74667 h -14.18666 q 1.76,3.04 4.85333,3.04 0.85333,0 1.44,-0.16 0.58667,-0.16 1.01333,-0.37334 0.48,-0.21333 0.90667,-0.37333 0.48,-0.16 1.06667,-0.16 1.12,0.0533 1.92,0.64 0.85333,0.58667 1.22666,1.49333 0.42667,0.85334 0.26667,1.86667 -0.10667,1.01333 -0.90667,1.86667 -1.44,1.17333 -3.2,1.65333 -1.76,0.42667 -3.73333,0.48 -2.56,0.10667 -4.90667,-0.90667 -2.34666,-1.06666 -4.16,-2.82666 -1.76,-1.81334 -2.82666,-4.21334 -1.01334,-2.4 -1.01334,-4.96 0,-2.50666 1.01334,-4.85333 1.06666,-2.34667 2.82666,-4.10667 1.76,-1.81333 4.10667,-2.88 2.34667,-1.06666 4.96,-1.06666 z m 4.85333,9.92 q -0.90666,-1.65334 -2.13333,-2.29334 -1.22667,-0.69333 -2.72,-0.69333 -1.54667,0 -2.77333,0.69333 -1.17334,0.64 -2.08,2.29334 z"
         style="fill:#cecece;fill-opacity:1;stroke-width:0.65092528px"
         id="path4673" />
      <path
         d="m 373.88848,187.30073 q 2.56,0 4.90667,1.06666 2.34666,1.06667 4.10666,2.88 1.81334,1.76 2.88,4.10667 1.06667,2.29333 1.06667,4.85333 0,1.38667 -1.06667,2.18667 -1.01333,0.8 -2.56,0.74667 h -14.18666 q 1.76,3.04 4.85333,3.04 0.85333,0 1.44,-0.16 0.58667,-0.16 1.01333,-0.37334 0.48,-0.21333 0.90667,-0.37333 0.48,-0.16 1.06667,-0.16 1.12,0.0533 1.92,0.64 0.85333,0.58667 1.22666,1.49333 0.42667,0.85334 0.26667,1.86667 -0.10667,1.01333 -0.90667,1.86667 -1.44,1.17333 -3.2,1.65333 -1.76,0.42667 -3.73333,0.48 -2.56,0.10667 -4.90667,-0.90667 -2.34666,-1.06666 -4.16,-2.82666 -1.76,-1.81334 -2.82666,-4.21334 -1.01334,-2.4 -1.01334,-4.96 0,-2.50666 1.01334,-4.85333 1.06666,-2.34667 2.82666,-4.10667 1.76,-1.81333 4.10667,-2.88 2.34667,-1.06666 4.96,-1.06666 z m 4.85333,9.92 q -0.90666,-1.65334 -2.13333,-2.29334 -1.22667,-0.69333 -2.72,-0.69333 -1.54667,0 -2.77333,0.69333 -1.17334,0.64 -2.08,2.29334 z"
         style="fill:#cecece;fill-opacity:1;stroke-width:0.65092528px"
         id="path4675" />
      <path
         d="m 393.05348,179.03406 q 1.49333,0 2.50667,1.06667 1.01333,1.01333 1.12,2.56 v 4.26666 h 9.17333 q 1.54667,0 2.50667,1.06667 0.96,1.06667 0.96,2.50667 0,1.38666 -1.06667,2.50666 -1.06667,1.06667 -2.4,1.06667 h -9.17333 v 5.86667 q 0,1.22666 0.42666,2.34666 0.48,1.06667 1.28,1.92 0.8,0.85334 1.86667,1.33334 1.12,0.48 2.4,0.48 1.38667,0 2.34667,-0.37334 1.01333,-0.37333 1.76,-1.12 1.12,-0.96 2.45333,-0.96 1.38667,-0.0533 2.56,1.01334 0.53333,0.48 0.8,1.12 0.26667,0.58666 0.26667,1.28 0.0533,0.64 -0.16,1.28 -0.21334,0.64 -0.69334,1.12 -1.86666,1.81333 -4.10666,2.77333 -2.24,0.96 -4.8,0.96 -2.77334,0 -5.22667,-0.90667 -2.45333,-0.96 -4.32,-2.66666 -1.86667,-1.76 -2.98667,-4.16 -1.06666,-2.45334 -1.12,-5.44 v -17.54667 q 0,-1.44 1.06667,-2.4 1.12,-0.96 2.56,-0.96 z"
         style="fill:#cecece;fill-opacity:1;stroke-width:0.65092528px"
         id="path4677" />
      <path
         d="m 418.4168,179.19406 q 1.44,0 2.4,1.01333 1.01334,1.01334 1.12,2.50667 v 21.06667 q 0,1.06666 0.69334,1.81333 0.69333,0.74667 1.76,0.74667 1.38666,0 2.4,0.96 1.06666,0.96 1.12,2.4 0,1.28 -0.90667,2.29333 -0.85333,0.96 -2.24,1.17333 h -0.74667 q -1.86666,0 -3.52,-0.74666 -1.65333,-0.8 -2.93333,-2.08 -1.22667,-1.28 -1.97333,-2.98667 -0.69334,-1.70667 -0.69334,-3.57333 v -21.28 q 0.16,-1.33334 1.12,-2.29334 0.96,-0.96 2.4,-1.01333 z"
         style="fill:#cecece;fill-opacity:1;stroke-width:0.65092528px"
         id="path4679" />
      <path
         d="m 442.63848,187.30073 q 2.56,0 4.90667,1.06666 2.34666,1.06667 4.10666,2.88 1.81334,1.76 2.88,4.10667 1.06667,2.29333 1.06667,4.85333 0,1.38667 -1.06667,2.18667 -1.01333,0.8 -2.56,0.74667 h -14.18666 q 1.76,3.04 4.85333,3.04 0.85333,0 1.44,-0.16 0.58667,-0.16 1.01333,-0.37334 0.48,-0.21333 0.90667,-0.37333 0.48,-0.16 1.06667,-0.16 1.12,0.0533 1.92,0.64 0.85333,0.58667 1.22666,1.49333 0.42667,0.85334 0.26667,1.86667 -0.10667,1.01333 -0.90667,1.86667 -1.44,1.17333 -3.2,1.65333 -1.76,0.42667 -3.73333,0.48 -2.56,0.10667 -4.90667,-0.90667 -2.34666,-1.06666 -4.16,-2.82666 -1.76,-1.81334 -2.82666,-4.21334 -1.01334,-2.4 -1.01334,-4.96 0,-2.50666 1.01334,-4.85333 1.06666,-2.34667 2.82666,-4.10667 1.76,-1.81333 4.10667,-2.88 2.34667,-1.06666 4.96,-1.06666 z m 4.85333,9.92 q -0.90666,-1.65334 -2.13333,-2.29334 -1.22667,-0.69333 -2.72,-0.69333 -1.54667,0 -2.77333,0.69333 -1.17334,0.64 -2.08,2.29334 z"
         style="fill:#cecece;fill-opacity:1;stroke-width:0.65092528px"
         id="path4681" />
    </g>
  </g>
</svg>
